<?xml version="1.0" standalone="no"?>
<!DOCTYPE svg PUBLIC "-//W3C//DTD SVG 20010904//EN"
 "http://www.w3.org/TR/2001/REC-SVG-20010904/DTD/svg10.dtd">
<svg version="1.0" xmlns="http://www.w3.org/2000/svg"
 width="100.000000pt" height="100.000000pt" viewBox="0 0 100.000000 100.000000"
 preserveAspectRatio="xMidYMid meet">

<g transform="translate(0.000000,100.000000) scale(0.100000,-0.100000)"
fill="#000000" stroke="none">
<path d="M455 825 c-22 -80 -44 -145 -49 -145 -8 0 -81 39 -155 83 l-34 21 43
-80 c23 -43 47 -83 51 -89 21 -22 1 -33 -136 -70 -80 -22 -145 -43 -145 -46 0
-4 65 -24 145 -45 80 -22 145 -44 145 -49 0 -6 -6 -19 -13 -30 -8 -11 -31 -51
-52 -89 l-38 -69 79 43 c44 24 84 47 91 52 7 6 16 7 21 4 5 -3 26 -68 47 -146
21 -77 41 -140 45 -140 4 0 24 63 45 140 21 78 42 143 47 146 5 3 14 2 21 -4
7 -5 48 -28 91 -52 l79 -43 -43 79 c-24 43 -47 84 -52 91 -6 7 -7 16 -4 21 3
5 68 26 146 47 77 21 140 41 140 44 0 4 -65 24 -145 46 -137 37 -157 48 -136
70 4 6 28 46 51 89 l43 80 -34 -21 c-74 -44 -147 -83 -155 -83 -5 0 -27 65
-49 145 -22 80 -42 145 -45 145 -3 0 -23 -65 -45 -145z m115 -241 c0 -11 -14
-33 -31 -50 l-30 -29 157 -5 156 -5 -123 -37 -124 -37 -37 37 -38 36 -1 -159
0 -160 -34 110 c-19 61 -35 117 -35 126 0 8 16 30 35 49 l35 34 1 165 0 166
34 -110 c19 -60 35 -119 35 -131z m-170 39 c0 -12 -4 -23 -9 -23 -5 0 -16 -2
-23 -5 -12 -5 -36 31 -67 99 -2 5 20 -4 48 -19 39 -22 51 -34 51 -52z m273 22
c-23 -46 -31 -54 -48 -49 -25 8 -22 5 -27 29 -2 15 9 26 47 47 28 15 51 28 52
28 2 0 -9 -25 -24 -55z m-213 -110 l34 -35 -155 1 c-84 0 -147 3 -139 7 35 13
196 61 211 61 8 1 30 -15 49 -34z m-58 -157 c2 -18 -7 -29 -44 -50 -26 -16
-50 -28 -53 -28 -3 0 6 23 20 50 20 39 31 50 49 50 18 0 25 -6 28 -22z m272
-25 c15 -25 25 -48 23 -50 -2 -2 -25 8 -50 23 -36 19 -47 32 -47 50 0 19 5 24
24 24 18 0 31 -11 50 -47z"/>
</g>
</svg>
